<svg xmlns="http://www.w3.org/2000/svg" xmlns:xlink="http://www.w3.org/1999/xlink" version="1.1" width="806.457pt" height="602.362pt" viewBox="0 0 650 650" fill="white">
<defs>
<clipPath id="clip_0">
<path transform="matrix(1,0,0,-1,0,602.362)" d="M0 602.362H806.457V0H0Z"/>
</clipPath>
</defs>
<g id="layer_1" data-name="">
<path transform="matrix(1,0,0,-1,0,602.362)" d="M431.273 355.5H423.178V458.944H431.273Z" fill-rule="evenodd"/>
<path transform="matrix(1,0,0,-1,460.3144,277.6505)" d="M0 0-4.047 7.01 85.537 58.732 89.585 51.722Z" fill-rule="evenodd"/>
<path transform="matrix(1,0,0,-1,448.1723,318.1962)" d="M0 0 4.047 7.011 93.632-44.712 89.585-51.722Z" fill-rule="evenodd"/>
<path transform="matrix(1,0,0,-1,0,602.362)" d="M406.987 274.409H415.082V170.965H406.987Z" fill-rule="evenodd"/>
<path transform="matrix(1,0,0,-1,377.9452,297.165)" d="M0 0 4.047-7.01-85.537-58.732-89.585-51.722Z" fill-rule="evenodd"/>
<path transform="matrix(1,0,0,-1,390.0873,256.6192)" d="M0 0-4.047-7.01-93.632 44.712-89.585 51.722Z" fill-rule="evenodd"/>
<path transform="matrix(1,0,0,-1,549.9365,185.78339)" d="M0 0-4.048-7.01-112.25 55.461-108.203 62.471Z" fill-rule="evenodd"/>
<path transform="matrix(1,0,0,-1,0,602.362)" d="M572.54 252.486H564.446V377.42799H572.54Z" fill-rule="evenodd"/>
<path transform="matrix(1,0,0,-1,441.7339,451.4978)" d="M0 0-4.048 7.01 104.155 69.481 108.203 62.471Z" fill-rule="evenodd"/>
<path transform="matrix(1,0,0,-1,288.3231,389.02723)" d="M0 0 4.048 7.01 112.25-55.461 108.203-62.471Z" fill-rule="evenodd"/>
<path transform="matrix(1,0,0,-1,0,602.362)" d="M265.719 377.427H273.814V252.485H265.719Z" fill-rule="evenodd"/>
<path transform="matrix(1,0,0,-1,396.5257,123.312808)" d="M0 0 4.048-7.01-104.155-69.481-108.203-62.471Z" fill-rule="evenodd"/>
<g clip-path="url(#clip_0)">
<path transform="matrix(1,0,0,-1,355.783,246.159)" d="M0 0C12.798 19.614 34.458 32.92 59.299 34.23V-4.332C48.682-5.483 39.409-11.109 33.403-19.285ZM-4.051-75.485C-9.284-65.206-12.238-53.572-12.238-41.246-12.238-28.921-9.284-17.286-4.051-7.007L29.348-26.291C27.332-30.866 26.212-35.925 26.212-41.246 26.212-46.567 27.333-51.626 29.348-56.202ZM59.299-116.723C34.458-115.412 12.798-102.107 0-82.493L33.403-63.208C39.409-71.383 48.682-77.01 59.299-78.161ZM126.694-82.493C113.896-102.107 92.236-115.412 67.394-116.723V-78.161C78.011-77.01 87.284-71.383 93.291-63.208ZM130.744-7.007C135.978-17.286 138.932-28.921 138.932-41.246 138.932-53.572 135.978-65.206 130.744-75.485L97.345-56.202C99.361-51.626 100.482-46.567 100.482-41.246 100.482-35.925 99.362-30.866 97.345-26.291ZM67.394 34.23C92.236 32.92 113.896 19.614 126.694 0L93.291-19.285C87.284-11.109 78.011-5.483 67.394-4.332Z" fill-rule="evenodd"/>
<path transform="matrix(1,0,0,-1,546.6395,218.3681)" d="M0 0C2.517-2.757 5.858-4.751 9.631-5.593V-32.161C-3.856-30.954-15.623-23.772-23.004-13.282ZM-3.972 18.088C-4.534 16.319-4.837 14.434-4.837 12.479-4.837 10.58-4.551 8.749-4.02 7.025L-27.045-6.268C-29.675-.564-31.145 5.785-31.145 12.479-31.145 19.229-29.65 25.629-26.977 31.37ZM13.679 57.302C38.435 57.302 58.503 37.234 58.503 12.479 58.503-10.912 40.585-30.115 17.726-32.161V-5.593C26.006-3.747 32.196 3.642 32.196 12.479 32.196 22.705 23.905 30.995 13.679 30.995 8.32 30.995 3.493 28.717 .112 25.077L-22.914 38.371C-14.794 49.826-1.431 57.302 13.679 57.302" fill-rule="evenodd"/>
<path transform="matrix(1,0,0,-1,542.6727,363.3139)" d="M0 0C-1.13-3.558-1.186-7.448-.028-11.137L-23.037-24.421C-28.735-12.137-28.398 1.644-23.004 13.281ZM13.679 12.484C11.865 12.087 10.081 11.407 8.388 10.429 6.744 9.48 5.302 8.316 4.073 6.995L-18.951 20.288C-15.327 25.418-10.562 29.865-4.766 33.212 1.08 36.587 7.37 38.493 13.679 39.049ZM56.465 16.805C68.842-4.634 61.497-32.047 40.058-44.425 19.801-56.121-5.788-50.205-18.99-31.432L4.019-18.148C9.758-24.395 19.252-26.06 26.904-21.642 35.76-16.529 38.795-5.205 33.682 3.652 31.002 8.293 26.616 11.334 21.773 12.443V39.03C35.753 37.725 48.91 29.891 56.465 16.805" fill-rule="evenodd"/>
<path transform="matrix(1,0,0,-1,415.1623,432.351)" d="M0 0C-3.647-.801-7.043-2.697-9.659-5.544L-32.668 7.74C-24.879 18.817-12.776 25.417 0 26.563ZM17.651-5.604C16.4-4.232 14.919-3.027 13.226-2.05 11.582-1.1 9.853-.433 8.094-.03L8.095 26.556C14.349 25.982 20.583 24.08 26.38 20.733 32.225 17.358 37.021 12.864 40.657 7.678ZM42.786-40.497C30.409-61.936 2.995-69.282-18.444-56.904-38.701-45.209-46.372-20.09-36.715 .729L-13.706-12.555C-16.247-20.648-12.943-29.703-5.29-34.121 3.566-39.234 14.89-36.2 20.004-27.344 22.683-22.702 23.124-17.382 21.662-12.634L44.687 .659C50.548-12.101 50.341-27.412 42.786-40.497" fill-rule="evenodd"/>
<path transform="matrix(1,0,0,-1,291.62,356.44239)" d="M0 0C-2.517 2.757-5.858 4.751-9.632 5.593V32.161C3.856 30.954 15.623 23.772 23.004 13.282ZM3.972-18.088C4.534-16.319 4.838-14.434 4.838-12.479 4.838-10.58 4.551-8.749 4.02-7.025L27.045 6.268C29.675 .564 31.145-5.785 31.145-12.479 31.145-19.229 29.65-25.629 26.977-31.37ZM-13.679-57.302C-38.434-57.302-58.503-37.234-58.503-12.479-58.503 10.912-40.585 30.115-17.726 32.161V5.593C-26.006 3.747-32.196-3.642-32.196-12.479-32.196-22.705-23.905-30.995-13.679-30.995-8.32-30.995-3.493-28.717-.111-25.077L22.914-38.371C14.794-49.826 1.431-57.302-13.679-57.302" fill-rule="evenodd"/>
<path transform="matrix(1,0,0,-1,295.5868,211.4967)" d="M0 0C1.13 3.558 1.186 7.448 .028 11.137L23.037 24.421C28.735 12.137 28.399-1.644 23.004-13.281ZM-13.679-12.484C-11.865-12.087-10.081-11.407-8.388-10.429-6.744-9.48-5.301-8.316-4.073-6.995L18.951-20.288C15.327-25.418 10.562-29.865 4.766-33.212-1.08-36.587-7.37-38.493-13.679-39.049ZM-56.465-16.805C-68.842 4.634-61.497 32.047-40.058 44.425-19.801 56.121 5.788 50.205 18.99 31.432L-4.019 18.148C-9.758 24.395-19.252 26.06-26.904 21.642-35.76 16.529-38.795 5.205-33.682-3.652-31.002-8.293-26.616-11.334-21.773-12.443V-39.03C-35.753-37.725-48.91-29.891-56.465-16.805" fill-rule="evenodd"/>
<path transform="matrix(1,0,0,-1,423.0973,142.4595)" d="M0 0C3.647 .801 7.043 2.697 9.659 5.544L32.668-7.74C24.879-18.817 12.776-25.417 0-26.563ZM-17.651 5.604C-16.4 4.232-14.919 3.027-13.226 2.05-11.582 1.1-9.853 .433-8.094 .03L-8.095-26.556C-14.349-25.982-20.583-24.08-26.379-20.733-32.225-17.358-37.021-12.864-40.656-7.678ZM-42.786 40.497C-30.409 61.936-2.995 69.281 18.444 56.904 38.701 45.209 46.372 20.089 36.715-.729L13.706 12.555C16.247 20.648 12.943 29.703 5.29 34.121-3.566 39.234-14.89 36.2-20.004 27.343-22.683 22.702-23.124 17.382-21.662 12.634L-44.687-.659C-50.548 12.101-50.341 27.412-42.786 40.497" fill-rule="evenodd"/>
</g>
</g>
</svg>
